<?xml version="1.0" encoding="UTF-8" standalone="no"?>
<svg
   xmlns:dc="http://purl.org/dc/elements/1.1/"
   xmlns:cc="http://creativecommons.org/ns#"
   xmlns:rdf="http://www.w3.org/1999/02/22-rdf-syntax-ns#"
   xmlns:svg="http://www.w3.org/2000/svg"
   xmlns="http://www.w3.org/2000/svg"
   xmlns:sodipodi="http://sodipodi.sourceforge.net/DTD/sodipodi-0.dtd"
   xmlns:inkscape="http://www.inkscape.org/namespaces/inkscape"
   width="1081"
   height="210"
   viewBox="0 0 1081 210"
   version="1.1"
   xml:space="preserve"
   style="clip-rule:evenodd;fill-rule:evenodd;stroke-miterlimit:10"
   id="svg4141"
   inkscape:version="0.91+devel+osxmenu r12922"
   sodipodi:docname="FHI-MPG_Logo_RGB_colored_gradient_TH-Version.svg"><metadata
     id="metadata4495"><rdf:RDF><cc:Work
         rdf:about=""><dc:format>image/svg+xml</dc:format><dc:type
           rdf:resource="http://purl.org/dc/dcmitype/StillImage" /><dc:title></dc:title></cc:Work></rdf:RDF></metadata><sodipodi:namedview
     pagecolor="#ffffff"
     bordercolor="#666666"
     borderopacity="1"
     objecttolerance="10"
     gridtolerance="10"
     guidetolerance="10"
     inkscape:pageopacity="0"
     inkscape:pageshadow="2"
     inkscape:window-width="640"
     inkscape:window-height="480"
     id="namedview4493"
     showgrid="false"
     showguides="true"
     inkscape:guide-bbox="true"
     inkscape:zoom="1.2698182"
     inkscape:cx="687.5"
     inkscape:cy="105"
     inkscape:current-layer="svg4141"><sodipodi:guide
       position="251.25239,162.03483"
       orientation="1,0"
       id="guide4956" /></sodipodi:namedview><g
     id="g4152"><path
       inkscape:connector-curvature="0"
       id="path4154"
       style="fill:#006c66;fill-rule:nonzero"
       d="M 105,0 C 47.399,0 0,47.399 0,105 0,162.601 47.399,210 105,210 162.601,210 210,162.601 210,105 209.945,47.419 162.581,0.055 105,0 Z m 0,207.1 C 48.99,207.1 2.9,161.01 2.9,105 2.9,48.99 48.99,2.9 105,2.9 161.01,2.9 207.1,48.99 207.1,105 207.045,160.99 160.99,207.045 105,207.1 Z" /></g><g
     id="g4156"><path
       inkscape:connector-curvature="0"
       id="path4158"
       style="fill:#006c66;fill-rule:nonzero"
       d="m 166.6,97 c -1.4,-3.1 -0.5,-5.1 -0.9,-7.3 -0.4,-2.2 -2.7,-7 -4.3,-10.8 -0.7,-1.7 3.8,-1.3 0.4,-7.6 0,-0.2 4.7,-2 0,-5.5 -2.368,-1.874 -4.398,-4.14 -6,-6.7 -0.319,-0.373 -0.319,-0.927 0,-1.3 2.7,-2.4 2.8,-5.8 -0.1,-7.5 -2.9,-1.7 -4.5,0 -6.7,1.4 -0.7,0.5 -1.1,0.8 -1.9,0.5 L 145.3,51 c 2.7,-2.6 3.3,-5.2 3.1,-5.6 -0.2,-0.4 -4.6,-1.3 -10.2,1 l -0.4,-0.3 c 2.3,-3.9 1,-6.7 0.9,-6.9 l -0.1,0 c 3.621,-4.885 7.781,-9.346 12.4,-13.3 l 0.1,0 c 0.2,-0.3 0.3,-0.6 -0.2,-0.9 l -1,-0.6 C 136.192,16.801 120.773,12.813 105.1,12.813 54.491,12.813 12.817,54.391 12.7,105 c 0,29.5 15,57.9 39.4,75.6 0.866,0.643 1.806,1.18 2.8,1.6 0.375,0.138 0.797,0.062 1.1,-0.2 l 0.3,-0.5 c 0.214,-0.208 0.325,-0.502 0.3,-0.8 0,-0.7 -0.9,-1.3 -2.1,-3 -3,-4.469 -4.634,-9.717 -4.7,-15.1 -0.074,-4.94 1.511,-9.766 4.5,-13.7 3.7,3.9 11.7,10.9 11.5,17.4 -0.2,6.5 -6.9,6.8 -5.4,12.2 0.9,3.4 3.4,2 3.9,4.6 0.7,4.4 6.7,7.3 9.3,6.9 0.7,-0.1 1.2,0.4 2.4,1.7 1.2,1.3 6.2,1.6 8.2,1.2 2,-0.4 4.1,1.4 8,0.9 3.9,-0.5 6.1,-0.9 8.2,-0.9 2.1,0 22.5,-0.3 36,1.8 2.4,0.4 3.1,-0.7 2.1,-2.5 -4.9,-8.6 -5.6,-15.8 -2.8,-25 5,0.4 12.2,1.7 21.6,-4 3.238,-2.057 5.175,-5.665 5.1,-9.5 -0.1,-2.1 -1,-4.7 -0.5,-6.7 0.5,-2 1.3,-2.7 2.1,-3.2 3.6,-2.6 1,-4.6 0.4,-4.8 1.538,-0.979 2.029,-3.031 1.1,-4.6 -0.7,-0.7 -2.7,-6.2 -0.4,-7.3 2.3,-1.1 5.3,-1.8 8.1,-3.1 1.686,-0.692 2.792,-2.341 2.792,-4.163 0,-0.633 -0.134,-1.259 -0.392,-1.837 -1.4,-3.6 -8.8,-20.6 -9,-21 z M 64.7,179.1 c -0.7,0.2 -2.9,0.3 -2.4,-2.7 0.5,-3 2.3,-2.6 3.3,-1.6 1,1 -0.7,2.8 -0.9,4.3 z m 87,-125.9 c 1.2,-0.8 2.5,-1.1 3.3,-0.4 2.6,2.6 -2.9,4.1 -1.8,6.1 1.961,3.238 4.504,6.086 7.5,8.4 1.2,1 1.4,3.1 -3.3,4.1 -4.7,1 -23.6,5.9 -33.6,16.5 -12.5,13.2 -20.4,30.3 -21.5,28 -1.1,-2.3 -3.6,-2.8 -3.2,-3.5 17.9,-30.8 46,-55.1 52.6,-59.2 z m 8.2,21.7 c -1,2.9 -9.1,5.5 -8.7,3.5 0.4,-2 0,-2.2 0.6,-2.3 0.6,-0.1 3.5,-1.1 7.5,-2.1 0.4,-0.1 0.9,0.1 0.6,0.9 z m -20.6,5.3 c -0.2,-1.2 8.5,-4.1 8.8,-3.3 0.3,0.8 -1.8,6 -4.7,7 -2.9,1 -4.7,0.9 -4.6,0.4 0.424,-1.323 0.594,-2.714 0.5,-4.1 z M 119,125.8 c -4,2.5 -6.2,-2.2 -6.8,-3.1 -0.618,-0.907 -0.802,-2.044 -0.5,-3.1 0.3,-1.4 0.5,-3.3 -0.4,-9.3 -0.4,-2.7 5,-9.2 6.3,-10.4 1.3,-1.2 3.1,0.6 3.2,2.6 0.3,3.6 -1.8,5.6 -3.9,7.2 -2.1,1.6 -3.1,4.4 -2.6,5.1 0.768,0.267 1.62,-0.137 1.9,-0.9 1.5,-3.3 6,-4.9 6.7,-6.7 0.7,-1.8 0.3,-4.4 0.2,-5.6 -0.1,-1.2 0.9,-1.2 1.6,-1.1 0.7,0.1 1.4,1.4 1.8,2.7 2.9,7.5 -4.3,12 -5.5,13.8 -1.2,1.8 1.1,6.9 -2,8.8 z m 6.1,-29.1 c -2.2,1.5 -5.3,-0.5 -4.7,-1.4 3.128,-4.34 7.026,-8.068 11.5,-11 3.4,-2.1 3.8,-2.3 4,-1.1 0.137,2.741 -0.795,5.432 -2.6,7.5 -2.3,2.5 -4.6,2.3 -5.8,2.6 -1.2,0.3 -0.8,2.3 -2.4,3.4 z m -19.3,25.6 c -1,-0.2 -1.4,-2.1 -1.2,-2.9 0.2,-0.8 3.1,-5.2 4,-6.4 0.088,-0.069 0.197,-0.107 0.309,-0.107 0.239,0 0.446,0.172 0.491,0.407 0.6,4.1 0,9.8 -3.6,9 z M 138,48.2 c 2.353,-1.075 4.913,-1.621 7.5,-1.6 0.8,0.1 -1.9,4.8 -6.6,6.8 -4.7,2 -8.5,2.5 -8.9,2.3 -0.4,-0.2 4.1,-5.8 8,-7.5 z m -83.3,78.3 c -1.5,-1.7 -2.8,-2.6 -2.9,-2.5 -1.829,2.672 -3.057,5.708 -3.6,8.9 C 43.652,124.276 41.089,114.742 40.7,105 39.3,69.6 69,41.1 105.2,41.2 c 7.701,-0.001 15.323,1.564 22.4,4.6 -1.496,2.042 -2.738,4.258 -3.7,6.6 0,-1.9 -0.5,-3.4 -0.4,-4.6 0.1,-1.2 -5.1,0.9 -9.7,8.3 -0.986,1.651 -1.727,3.436 -2.2,5.3 -0.1,-2.8 -0.7,-4.9 -0.9,-4.9 -3.879,1.7 -6.936,4.864 -8.5,8.8 -0.457,1.102 -0.824,2.239 -1.1,3.4 -0.2,-1.9 -0.7,-3.2 -0.9,-3.2 -0.2,0 -5.9,2.3 -8.6,8.9 -0.601,1.468 -0.972,3.019 -1.1,4.6 -0.5,-2.3 -1.4,-3.7 -1.7,-3.4 -1.9,2.4 -5.7,3.5 -7.6,9.6 -0.459,1.353 -0.695,2.771 -0.7,4.2 -0.8,-2 -2,-3.2 -2.3,-3.2 -0.3,0 -6.1,5.5 -7,10.9 -0.292,1.929 -0.224,3.896 0.2,5.8 -1.1,-1.8 -2.5,-3 -3.1,-4.8 -0.9,0.5 -5.7,5 -5.8,10.7 -0.087,2.057 0.149,4.116 0.7,6.1 -1.6,-2.9 -3.8,-4.2 -4.1,-4.1 -0.3,0.1 -4,4.1 -4.8,11.1 -0.171,1.545 -0.035,3.108 0.4,4.6 z m 74.1,-79.7 c 2.8,-3.4 7.6,-6.1 8.2,-5.8 0.6,0.3 -0.8,5.6 -3.9,8.6 -3.1,3 -8.1,6.2 -8.6,6.1 -0.5,-0.1 1.7,-5.9 4.3,-8.9 z m -9.3,13 c -2.284,1.729 -4.189,3.907 -5.6,6.4 -0.5,0.9 -1.9,-5 1.7,-10.6 2.2,-3.5 6.6,-6.6 6.5,-6.2 -0.1,0.4 2.1,6.6 -2.6,10.4 z m -10.1,7.5 c -3.4,5.1 -3.6,3.3 -7.3,8.3 -0.2,0.2 -0.2,-6.5 1.1,-9.4 2.1,-4.7 5.7,-7.4 6.2,-7.5 0.5,-0.1 1.9,5.8 0,8.6 z M 98.3,77.4 c -1.7,3 -3.3,2.3 -6.2,6.7 -0.3,0.4 -1.1,-3.6 0.7,-9.1 1.041,-2.952 3.145,-5.413 5.9,-6.9 0.6,-0.1 1.7,5.7 -0.4,9.3 z M 88,88.1 c -1.8,3.9 -2.9,4 -5,6.4 -0.3,0.4 -1.8,-3.7 -0.4,-8.8 1.4,-5.1 4,-5.6 5.3,-7 1.3,-1.4 2,5.3 0.1,9.4 z m -8.4,6.6 c 0.015,1.014 -0.12,2.025 -0.4,3 -1.3,4.3 -3.9,6.2 -5.3,8.1 -0.902,-1.812 -1.446,-3.782 -1.6,-5.8 0.07,-4.299 1.962,-8.372 5.2,-11.2 0.8,0 2.1,3.2 2.1,5.9 z m -8.5,12.8 c -0.12,4.152 -1.97,8.07 -5.1,10.8 -1.297,-2.335 -2.05,-4.933 -2.2,-7.6 -0.2,-6.3 2.4,-8.5 3.6,-9.7 0.5,1.8 3.7,3.2 3.7,6.5 z M 59,113.8 c 1.8,0.9 3.9,3.4 4.1,8.2 0.2,4.8 -3.2,8.7 -4.6,9.4 -0.9,-3.7 -2.6,-4.4 -2.6,-8 0.097,-3.43 1.173,-6.761 3.1,-9.6 z m 7.3,12.5 c 4.6,-2 9.6,-1.7 9.8,-1.5 0.2,0.2 -1.5,5.9 -5.9,8.2 -4.4,2.3 -9.5,2.7 -10,2.1 -0.5,-0.6 1.5,-6.8 6.1,-8.8 z m -0.4,-3.4 c 0.3,-1.5 3,-6.5 7.1,-8.3 2.947,-1.316 6.19,-1.833 9.4,-1.5 0.5,0.2 -1.7,5.6 -5.8,7.6 -4.1,2 -6.5,0.9 -10.7,2.2 z m 6.9,-11.8 c 0.2,-0.4 3.5,-6.4 7.4,-8.2 2.793,-1.235 5.862,-1.718 8.9,-1.4 0.3,0.1 -1.8,5.4 -6.2,7.6 -4.4,2.2 -10.3,2.5 -10.1,2 z m 8.9,-11.9 c -0.3,-0.2 4.4,-6.4 8.4,-8.3 2.654,-1.101 5.562,-1.447 8.4,-1 0.3,0.3 -1.9,5.5 -6.5,7.5 -3.261,1.343 -6.777,1.958 -10.3,1.8 z M 92.4,87.4 c -0.2,-0.2 3.4,-6.3 7.4,-7.9 4,-1.6 7.7,-0.1 8.9,0 1.2,0.1 -1.3,4.5 -6.6,6.4 -5.3,1.9 -9,1.8 -9.7,1.5 z m 12,-11.4 c 0.1,-0.3 4.1,-5.9 8.1,-7.3 2.984,-0.943 6.177,-1.013 9.2,-0.2 0.5,0.2 -2.8,5 -7.7,6.5 -4.9,1.5 -9.7,1.3 -9.6,1 z m 12.1,-9.9 c -0.5,-0.3 4.3,-5.7 8.2,-7.2 2.65,-0.98 5.493,-1.323 8.3,-1 0.3,0.2 -2.5,4.9 -7.1,6.7 -4.6,1.8 -8.8,1.9 -9.4,1.5 z M 50.2,175.3 C 28.6,158.1 15.6,132.1 15.6,105 c 0,-0.043 0,-0.086 0,-0.129 0,-48.988 40.311,-89.3 89.3,-89.3 14.457,0 28.699,3.511 41.5,10.229 0.158,0.057 0.265,0.208 0.265,0.376 0,0.128 -0.062,0.249 -0.165,0.324 -3.694,3.526 -7.104,7.338 -10.2,11.4 -9.786,-4.621 -20.478,-7.013 -31.3,-7 -40.609,0.109 -73.991,33.491 -74.1,74.1 -0.159,17.715 6.216,34.883 17.9,48.2 -1.284,2.966 -1.931,6.168 -1.9,9.4 -0.022,4.448 1.115,8.826 3.3,12.7 z m 0.2,-24.8 -0.1,0 C 39.541,137.803 33.716,121.641 33.9,105 33.955,66.016 66.016,33.955 105,33.9 c 10.215,-0.049 20.318,2.136 29.6,6.4 -1.456,0.717 -2.831,1.589 -4.1,2.6 -8.053,-3.452 -16.738,-5.189 -25.5,-5.1 -36.844,0.055 -67.145,30.356 -67.2,67.2 0,16.1 5,30.2 14.8,42 -0.5,0.9 -1.3,2.1 -2.2,3.5 z m 3.5,-5.6 c -1.3,-1.2 -4.1,-4.3 -4.4,-8.3 l 0,-0.6 c 0,-4.3 1.9,-8.6 2.4,-9 0.5,-0.4 5.3,3.3 5.4,8.7 -0.022,3.369 -1.226,6.626 -3.4,9.2 z m 8,-7.2 c 3.9,-1.8 9.6,-1.4 9.3,-1.1 -0.3,0.3 -1.8,5.8 -6.2,8 -2.633,1.509 -5.741,1.973 -8.7,1.3 2.3,-2.6 1.8,-6.4 5.6,-8.2 z m 5.2,46.5 c -0.6,-2.7 -0.4,-6.3 0.5,-7.3 0.9,-1 4.9,-1.2 5,-0.1 0.1,1.1 -1.1,5.4 0.3,10.2 -0.3,0.7 -4.6,0.4 -5.8,-2.8 z m 0.3,-11.1 c -0.3,-2 1.6,-3.9 1.6,-8.2 0,-4.3 -6.6,-12.6 -11.1,-17.3 2.737,-0.072 5.429,-0.719 7.9,-1.9 6.6,-3.1 7.9,-10.1 8.1,-10.4 -1.234,-0.354 -2.52,-0.489 -3.8,-0.4 l 0.8,-0.4 c 6.4,-3.5 8.1,-11 7.8,-11.1 -1.317,-0.258 -2.66,-0.358 -4,-0.3 l 2,-0.7 c 6.8,-2.7 8.7,-10.3 8.5,-10.6 -1.149,-0.261 -2.322,-0.395 -3.5,-0.4 l 1.9,-0.8 c 6.2,-3.1 8.4,-10.1 8.1,-10.3 -1.072,-0.308 -2.186,-0.443 -3.3,-0.4 1.546,-0.348 3.054,-0.851 4.5,-1.5 6.7,-2.9 8.9,-9.3 8.6,-9.6 -0.972,-0.306 -1.982,-0.474 -3,-0.5 1.494,-0.335 2.964,-0.77 4.4,-1.3 6.6,-2.2 9.2,-8.5 8.8,-8.6 L 108,77.6 c 2.249,-0.128 4.47,-0.565 6.6,-1.3 7.1,-2.4 9.6,-6.7 9.8,-8.6 -0.704,-0.421 -1.487,-0.693 -2.3,-0.8 1.597,-0.269 3.169,-0.671 4.7,-1.2 6.6,-2.7 9.4,-9.3 9.6,-9.8 1.337,-0.439 2.64,-0.974 3.9,-1.6 l 1.9,-0.9 1.6,1.1 c 1,0.6 1.4,0.8 0.9,1.2 C 122,75 105,99.5 97.6,111.3 c -0.2,0.4 -0.6,0.3 -1.3,0.3 -7.9,-0.6 -12.4,8.9 -8.9,17.8 -0.4,1.8 -4.2,5.3 -4.5,5.5 -0.3,0.2 -1,1.4 0.3,1.3 1.3,-0.1 4.2,-3.2 5.4,-4.5 0.4,0.6 2.2,2 1.3,2.8 -4.13,4.121 -8.807,7.654 -13.9,10.5 -2.6,1.2 4.2,2.1 15.7,-8.3 0.7,-0.6 1.5,2.4 2.5,3.7 -2,6.5 2.9,19.1 2.1,23 -0.054,1.498 -1.301,2.701 -2.8,2.7 -11.4,0.3 -12.5,-0.3 -18.3,1.4 -2.7,0.8 -2,2.6 -0.1,2.1 1.9,-0.5 4.6,-1.5 16.9,-0.7 3.1,0.1 6.5,-0.6 6.5,-5.7 0,-5.1 -3.6,-18.4 -2.4,-20.3 1.014,0.782 2.226,1.267 3.5,1.4 -0.2,4.5 7,19 3.8,27 -1.2,3 -6.4,2.7 -15.4,1.8 -15.3,-1.5 -20.3,1.8 -20.6,0 z m 35.1,9.9 c -5.9,2 -8.3,-4.9 -7.3,-6.4 1,-1.5 4.4,1 7.3,-0.9 2.9,-1.9 3.5,6.1 0,7.3 z m -27,4.3 c -0.8,-3.7 -1.1,-10 0.4,-11.5 1.5,-1.5 4.9,-0.9 4.8,0.2 -0.3,4.3 -2.1,9.2 1.2,14.1 1.3,1.9 -5.2,2.2 -6.4,-2.8 z m 11.4,4.2 c -1.6,-0.4 -6,-7.4 -2.4,-15.8 0.3,-0.8 5.8,-0.3 6.8,0 1,0.3 -0.8,6.8 6.8,9.8 0.7,0.3 -0.1,8.8 -11.2,6 z m 47.2,-23.3 c -2.5,8.8 -3.8,12.3 0,21.9 0.5,1.3 0.9,2.3 -0.2,2.1 -7.7,-1.4 -9.4,-2.6 -33.7,-0.6 -1.7,0.2 0.6,-3.4 0.3,-5.8 2.2,-0.3 5.8,-1.3 6.5,-4.9 0.7,-3.6 -2.1,-7.6 -1.8,-8.2 3.5,-6.7 -0.2,-14.1 -3.1,-26.6 -0.3,-1.2 0.4,-1.7 0.9,-1.1 15.6,16.9 25.5,20.2 30.9,21.8 0.5,0.2 0.4,0.8 0.2,1.4 z M 174,122.1 c -3.3,2.9 -8.3,3.1 -10.3,4.9 -2,1.8 -1.5,2.5 -0.4,5.2 1.1,2.7 1.1,1.7 -1.1,2.3 -2.2,0.6 -4.1,5.8 -8.8,4.9 -1.8,-0.3 -0.5,0.8 0.2,0.9 2.6,0.3 3.7,-0.5 4.6,-1.4 0.9,-0.9 2.2,-2.4 3.6,-2.9 1.4,-0.5 2.9,-0.5 3,0.6 0.1,1.1 -1.9,2.1 -2.7,2.5 1,0.5 3.9,1.9 1.4,3.6 -2.5,1.7 -4.6,-0.5 -4.9,-0.7 -0.3,-0.2 -1.7,-0.2 -1.3,0.3 0.4,0.5 5.2,1.3 4.5,2.2 -3.5,4.7 -0.6,7.5 -1.7,12.3 -1.1,4.8 -7.7,7.5 -12.8,8.4 -17.4,3.1 -34.3,-11.6 -44.2,-22.8 0.9,-2.1 0.8,-4.8 -0.1,-3.8 -0.9,1 -0.7,2.4 -2.8,2.9 -3.9,1 -5.7,-5.9 -6.9,-7.1 -4.8,-4.7 -6.7,-11.4 -3.9,-17.3 2.8,-5.9 9,-4.7 11.4,-1.1 2.4,3.6 1.7,7 3.4,8.3 1.7,1.3 4.8,0.2 5.4,0 0.6,-0.2 1.7,4.3 8,4.1 6.3,-0.2 5.9,-10.7 6.9,-11.6 8.6,-8.4 4.2,-15.9 2.6,-17.6 -1.6,-1.7 1,-3.6 1.5,-3.7 4.21,-0.853 7.734,-3.74 9.4,-7.7 1.666,-3.96 8.4,-0.2 11.4,-6.2 0.8,-1.6 3.3,1.5 8.9,-2.9 0.152,-0.19 0.382,-0.301 0.625,-0.301 0.364,0 0.684,0.249 0.775,0.601 3.7,8.9 5.2,11.3 4.9,15.8 -0.3,4.5 8.7,21.5 9.4,23.1 0.7,1.6 0.8,3.4 0,4.2 z" /></g><g
     id="g4160"><path
       inkscape:connector-curvature="0"
       id="path4162"
       style="fill:#006c66;fill-rule:nonzero"
       d="m 153.8,90 c -4.9,0.2 -10.6,6.2 -12.4,7 -1.8,0.8 -1.3,1.5 -0.2,1.1 1.1,-0.4 5.9,-4.7 10.7,-6.4 4.8,-1.7 3.6,1.8 5,1.6 1.4,-0.2 -0.3,-3.4 -3.1,-3.3 z" /></g><g
     id="g4164"><path
       inkscape:connector-curvature="0"
       id="path4166"
       style="fill:#006c66;fill-rule:nonzero"
       d="m 154.9,94.8 c -0.4,0.1 0.4,2.2 -1.7,2.3 -4.6,0.3 -8.3,4.7 -11.1,6 -1.185,0.664 -2.468,1.136 -3.8,1.4 -0.146,0.024 -0.254,0.152 -0.254,0.3 0,0.167 0.137,0.304 0.304,0.304 0.017,0 0.033,-0.001 0.05,-0.004 11.7,1.6 16.2,1.1 16.3,0.7 0.1,-0.4 -0.6,-1.2 -0.4,-1.7 0.486,-1.797 0.52,-3.687 0.1,-5.5 -0.2,-0.8 1.8,-0.3 1.8,-1.3 0,-1 -0.6,-2.6 -1.3,-2.5 z m -1.8,9.3 c -0.2,0.9 -5.5,0.5 -8.3,0.2 -0.7,0 -1.8,-0.1 0.3,-1.4 2.1,-1.3 4.1,-2.8 7.2,-3.4 0.373,-0.012 0.707,0.239 0.8,0.6 0.254,1.321 0.254,2.679 0,4 z" /></g><g
     id="g4168"><path
       inkscape:connector-curvature="0"
       id="path4170"
       style="fill:#006c66;fill-rule:nonzero"
       d="m 168.4,120.8 c -0.9,0 -4.5,1.6 -5.9,2.5 -1.4,0.9 -4.4,2.7 -4.2,-0.8 0.1,-1.3 0.9,-4.4 0.9,-5.3 0,-0.9 -1,-0.7 -1.1,0 -0.105,1.781 -0.339,3.553 -0.7,5.3 -0.4,1.8 1.2,4 3.6,2.7 2.4,-1.3 4.8,-2.9 7.3,-3.4 0.6,-0.1 0.7,-1 0.1,-1 z" /></g><g
     id="g4172"><path
       inkscape:connector-curvature="0"
       id="path4174"
       style="fill:#006c66;fill-rule:nonzero"
       d="m 100.5,133.6 c -0.7,-0.3 -0.5,1.2 -1.4,1 -0.9,-0.2 -0.2,-1.3 -1.8,-3 -1.6,-1.7 -2.8,-1.2 -4.3,-3.6 -1.5,-2.4 -0.3,-12 3.1,-10.8 3.4,1.2 1.6,5 1,8 -0.6,3 2.5,2.8 2.8,2.1 0.3,-0.7 -1.1,-0.9 -1.4,-1.9 -0.3,-1 3.5,-7.6 -1.8,-9.4 -3.8,-1.3 -6.4,3.6 -5.9,8.9 0.142,3.162 2.148,5.956 5.1,7.1 2.3,0.8 0.6,4 3.7,4 1.4,0 1.7,-2.1 0.9,-2.4 z" /></g><g
     id="g4176"><path
       inkscape:connector-curvature="0"
       id="path4178"
       style="fill:#006c66;fill-rule:nonzero"
       d="m 131.3,33.4 c 0.2,0.1 0.3,0 0.5,-0.1 l 6.5,-8.3 c 0.084,-0.221 0,-0.473 -0.2,-0.6 L 137,24 c -0.168,-0.091 -0.379,-0.048 -0.5,0.1 l -6.5,8.3 c -0.2,0.2 -0.1,0.5 0.2,0.6 l 1.1,0.4 z" /></g><g
     id="g4180"><path
       inkscape:connector-curvature="0"
       id="path4182"
       style="fill:#006c66;fill-rule:nonzero"
       d="m 119.2,30 1.1,0.3 c 0.213,0.018 0.415,-0.104 0.5,-0.3 l 3.8,-9.4 c 0.036,-0.061 0.055,-0.131 0.055,-0.203 0,-0.202 -0.154,-0.374 -0.355,-0.397 l -1.2,-0.2 -0.3,0 -3.9,9.6 c -0.036,0.061 -0.055,0.131 -0.055,0.203 0,0.202 0.154,0.374 0.355,0.397 z" /></g><g
     id="g4184"><path
       inkscape:connector-curvature="0"
       id="path4186"
       style="fill:#006c66;fill-rule:nonzero"
       d="m 105.8,28.7 1.1,0 c 0.2,0.1 0.4,-0.1 0.4,-0.3 l 1,-10 c 0.005,-0.24 -0.164,-0.452 -0.4,-0.5 l -1.1,0 c -0.3,0 -0.4,0.2 -0.5,0.4 l -0.9,10 c 0,0.219 0.181,0.4 0.4,0.4 z" /></g><g
     id="g4188"><path
       inkscape:connector-curvature="0"
       id="path4190"
       style="fill:#006c66;fill-rule:nonzero"
       d="m 92.8,29.7 1.1,-0.2 c 0.2,0 0.4,-0.2 0.3,-0.4 l -1.9,-9.9 c 0,-0.2 -0.2,-0.4 -0.4,-0.3 l -1.2,0 c -0.2,0.1 -0.4,0.3 -0.3,0.5 l 1.9,9.9 c 0,0.3 0.2,0.4 0.5,0.4 z" /></g><g
     id="g4192"><path
       inkscape:connector-curvature="0"
       id="path4194"
       style="fill:#006c66;fill-rule:nonzero"
       d="M 79.4,32.8 79.9,33 81,32.6 c 0.201,-0.023 0.355,-0.195 0.355,-0.397 0,-0.072 -0.019,-0.142 -0.055,-0.203 l -4.6,-9 c -0.09,-0.185 -0.308,-0.272 -0.5,-0.2 l -1,0.3 c -0.201,0.023 -0.355,0.195 -0.355,0.397 0,0.072 0.019,0.142 0.055,0.203 l 4.5,9.1 z" /></g><g
     id="g4196"><path
       inkscape:connector-curvature="0"
       id="path4198"
       style="fill:#006c66;fill-rule:nonzero"
       d="m 67,38.5 c 0.1,0.2 0.3,0.2 0.5,0.1 l 1,-0.6 c 0.12,-0.072 0.194,-0.203 0.194,-0.343 0,-0.094 -0.033,-0.185 -0.094,-0.257 l -6.7,-7.7 c -0.2,-0.2 -0.4,-0.2 -0.5,-0.1 l -1,0.6 c -0.3,0.1 -0.3,0.4 -0.1,0.6 l 6.7,7.7 z" /></g><g
     id="g4200"><path
       inkscape:connector-curvature="0"
       id="path4202"
       style="fill:#006c66;fill-rule:nonzero"
       d="m 55.4,46.7 c 0.2,0.1 0.4,0.1 0.5,-0.1 l 0.9,-0.7 c 0.189,-0.193 0.189,-0.507 0,-0.7 l -8.5,-5.9 -0.5,0 -0.9,0.8 c -0.189,0.193 -0.189,0.507 0,0.7 l 8.5,5.9 z" /></g><g
     id="g4204"><path
       inkscape:connector-curvature="0"
       id="path4206"
       style="fill:#006c66;fill-rule:nonzero"
       d="m 45.4,57.1 c 0.161,0.021 0.32,-0.058 0.4,-0.2 L 46.6,56 c 0.2,-0.2 0.1,-0.5 -0.2,-0.6 l -9.8,-3.8 c -0.2,-0.1 -0.4,-0.1 -0.5,0.1 l -0.7,0.9 c -0.089,0.076 -0.141,0.187 -0.141,0.304 0,0.198 0.146,0.367 0.341,0.396 l 9.8,3.8 z" /></g><g
     id="g4208"><path
       inkscape:connector-curvature="0"
       id="path4210"
       style="fill:#006c66;fill-rule:nonzero"
       d="m 26.8,67.8 10.5,1.5 c 0.2,0 0.4,-0.1 0.4,-0.3 l 0.6,-1 c 0.036,-0.061 0.055,-0.131 0.055,-0.203 0,-0.202 -0.154,-0.374 -0.355,-0.397 L 27.5,65.9 27,66.1 c -0.125,0.384 -0.293,0.753 -0.5,1.1 -0.036,0.061 -0.055,0.131 -0.055,0.203 0,0.202 0.154,0.374 0.355,0.397 z" /></g><g
     id="g4212"><path
       inkscape:connector-curvature="0"
       id="path4214"
       style="fill:#006c66;fill-rule:nonzero"
       d="m 21.1,83.7 10.7,-1 c 0.165,0 0.3,-0.135 0.3,-0.3 0.161,-0.356 0.295,-0.724 0.4,-1.1 0.037,-0.062 0.056,-0.132 0.056,-0.204 0,-0.219 -0.181,-0.4 -0.4,-0.4 -0.019,0 -0.037,0.001 -0.056,0.004 l -10.8,1 -0.4,0.3 -0.3,1.2 c 0,0.3 0.2,0.6 0.5,0.5 z" /></g><g
     id="g4216"><path
       inkscape:connector-curvature="0"
       id="path4218"
       style="fill:#006c66;fill-rule:nonzero"
       d="m 29.2,96.5 c 0,-0.4 0.1,-0.9 0.1,-1.3 0,-0.4 -0.2,-0.5 -0.5,-0.4 l -10.4,3.6 c -0.2,0.1 -0.3,0.2 -0.3,0.4 0,0.2 -0.1,0.8 -0.1,1.2 -0.003,0.019 -0.004,0.037 -0.004,0.056 0,0.219 0.181,0.4 0.4,0.4 0.072,0 0.142,-0.019 0.204,-0.056 l 10.3,-3.6 c 0.165,0 0.3,-0.135 0.3,-0.3 z" /></g><g
     id="g4220"><path
       inkscape:connector-curvature="0"
       id="path4222"
       style="fill:#006c66;fill-rule:nonzero"
       d="m 28.9,110.8 0,-1.3 c -0.029,-0.251 -0.244,-0.443 -0.497,-0.443 -0.07,0 -0.139,0.015 -0.203,0.043 l -9.4,6.3 c -0.2,0 -0.2,0.2 -0.2,0.4 0,0.2 0.1,0.8 0.1,1.2 0.065,0.209 0.259,0.352 0.478,0.352 0.077,0 0.153,-0.018 0.222,-0.052 l 9.4,-6.2 c 0.1,-0.1 0.2,-0.2 0.1,-0.3 z" /></g><g
     id="g4224"><path
       inkscape:connector-curvature="0"
       id="path4226"
       style="fill:#006c66;fill-rule:nonzero"
       d="M 31.3,125 31,123.7 c -0.029,-0.195 -0.198,-0.341 -0.396,-0.341 -0.117,0 -0.228,0.052 -0.304,0.141 l -7.7,8.5 c -0.1,0.1 -0.2,0.3 -0.1,0.4 0.1,0.1 0.3,0.8 0.4,1.2 0.029,0.195 0.198,0.341 0.396,0.341 0.117,0 0.228,-0.052 0.304,-0.141 l 7.6,-8.4 c 0.1,-0.1 0.1,-0.2 0.1,-0.4 z" /></g><g
     id="g4228"><path
       inkscape:connector-curvature="0"
       id="path4230"
       style="fill:#006c66;fill-rule:nonzero"
       d="M 35.2,137.7 29.8,148 c -0.1,0.1 0,0.3 0,0.4 l 0.7,1.2 c 0.075,0.103 0.196,0.165 0.324,0.165 0.168,0 0.319,-0.107 0.376,-0.265 l 5.4,-10.2 c 0,-0.1 0.1,-0.2 0,-0.4 L 36,137.7 c -0.094,-0.126 -0.243,-0.2 -0.4,-0.2 -0.157,0 -0.306,0.074 -0.4,0.2 z" /></g><g
     id="g4232"><path
       inkscape:connector-curvature="0"
       id="path4234"
       style="fill:#006c66;fill-rule:nonzero"
       d="m 42.9,149.3 c -0.2,-0.3 -0.7,-0.2 -0.7,0.1 l -2.9,12 c -0.1,0.2 0,0.3 0,0.4 l 1,1 c 0.075,0.103 0.196,0.165 0.324,0.165 0.168,0 0.319,-0.107 0.376,-0.265 l 2.8,-11.9 c 0.1,-0.1 0,-0.2 0,-0.3 l -0.9,-1.2 z" /></g><g
     id="g4958"
     transform="matrix(1.1257059,0,0,1.1257059,-466.95177,-19.679748)"><g
       id="g4280"><path
         d="m 637.4,63.1 c -0.003,-0.038 -0.004,-0.075 -0.004,-0.113 0,-0.878 0.722,-1.6 1.6,-1.6 0.068,0 0.136,0.004 0.204,0.013 l 21.9,0 c 0.068,-0.009 0.136,-0.013 0.204,-0.013 0.878,0 1.6,0.722 1.6,1.6 0,0.038 -10e-4,0.075 -0.004,0.113 0,1 -0.6,1.6 -1.8,1.6 l -19.8,0 c -0.219,0 -0.4,0.181 -0.4,0.4 l 0,15.4 c 0,0.2 0.2,0.3 0.4,0.3 l 16.9,0 c 0.933,0 1.7,0.767 1.7,1.7 0,0.933 -0.767,1.7 -1.7,1.7 l -16.9,0 c -0.2,0 -0.4,0.1 -0.4,0.3 l 0,17.2 c 0.008,0.066 0.012,0.133 0.012,0.2 0,0.933 -0.768,1.7 -1.7,1.7 -0.004,0 -0.008,0 -0.012,0 -0.001,0 -0.002,0 -0.003,0 -0.987,0 -1.8,-0.813 -1.8,-1.8 0,-0.033 10e-4,-0.067 0.003,-0.1 l 0,-38.6 z"
         style="fill-rule:nonzero"
         id="path4282"
         inkscape:connector-curvature="0" /></g><g
       id="g4284"><path
         d="m 701.6,73 c 0,-5.3 -3.2,-8.3 -9.3,-8.3 l -10.8,0 c -0.2,0 -0.3,0.2 -0.3,0.4 l 0,15.8 c 0,0.2 0.1,0.4 0.3,0.4 l 10.8,0 c 6.1,0 9.3,-3 9.3,-8.3 m 0.1,29.5 -8.7,-17.9 -11.5,0 c -0.2,0 -0.3,0.1 -0.3,0.4 l 0,16.7 c 0,0.987 -0.813,1.8 -1.8,1.8 -0.987,0 -1.8,-0.813 -1.8,-1.8 l 0,-38.6 c -0.003,-0.038 -0.004,-0.075 -0.004,-0.113 0,-0.878 0.722,-1.6 1.6,-1.6 0.068,0 0.136,0.004 0.204,0.013 l 13,0 c 7.8,0 12.7,4.4 12.7,11.6 0,7.2 -3.3,9.9 -8.6,11.2 l 8.4,16.9 c 0.112,0.253 0.18,0.524 0.2,0.8 0,10e-4 0,0.002 0,0.003 0,0.933 -0.767,1.7 -1.7,1.7 -0.033,0 -0.067,-10e-4 -0.1,-0.003 -0.701,-0.023 -1.328,-0.454 -1.6,-1.1"
         style="fill-rule:nonzero"
         id="path4286"
         inkscape:connector-curvature="0" /></g><g
       id="g4288"><path
         d="m 721.8,63.1 c 0,-1.3 0.7,-1.9 1.7,-1.9 0.037,-0.002 0.075,-0.004 0.112,-0.004 0.933,0 1.7,0.768 1.7,1.7 0,0.068 -0.004,0.136 -0.012,0.204 l 0,38.6 c 0.008,0.068 0.012,0.136 0.012,0.204 0,0.932 -0.767,1.7 -1.7,1.7 -0.037,0 -0.075,-0.002 -0.112,-0.004 -0.004,0 -0.008,0 -0.012,0 -0.932,0 -1.7,-0.767 -1.7,-1.7 0,-0.067 0.004,-0.134 0.012,-0.2 l 0,-38.6 z"
         style="fill-rule:nonzero"
         id="path4290"
         inkscape:connector-curvature="0" /></g><g
       id="g4292"><path
         d="m 752.1,101.7 0,-36.6 c 0,-0.2 -0.1,-0.4 -0.3,-0.4 l -11.1,0 c -1.2,0 -1.8,-0.6 -1.8,-1.6 -0.003,-0.038 -0.004,-0.075 -0.004,-0.113 0,-0.878 0.722,-1.6 1.6,-1.6 0.068,0 0.136,0.004 0.204,0.013 l 26.5,0 c 0.034,-0.002 0.069,-0.003 0.103,-0.003 0.878,0 1.6,0.722 1.6,1.6 0,0.034 -10e-4,0.069 -0.003,0.103 0.003,0.038 0.004,0.076 0.004,0.114 0,0.823 -0.677,1.5 -1.5,1.5 -0.068,0 -0.136,-0.005 -0.204,-0.014 l -11.2,0 c -0.2,0 -0.3,0.2 -0.3,0.4 l 0,36.6 c 0,0.987 -0.813,1.8 -1.8,1.8 -0.987,0 -1.8,-0.813 -1.8,-1.8"
         style="fill-rule:nonzero"
         id="path4294"
         inkscape:connector-curvature="0" /></g><g
       id="g4296"><path
         d="m 781.1,103.3 c -0.068,0.009 -0.136,0.013 -0.204,0.013 -0.878,0 -1.6,-0.722 -1.6,-1.6 0,-0.038 10e-4,-0.075 0.004,-0.113 0.034,-0.829 0.312,-1.629 0.8,-2.3 l 22,-34.5 -20.2,0 c -1.2,0 -1.8,-0.6 -1.8,-1.6 -0.003,-0.038 -0.004,-0.075 -0.004,-0.113 0,-0.878 0.722,-1.6 1.6,-1.6 0.068,0 0.136,0.004 0.204,0.013 l 22.7,0 c 0.066,-0.008 0.133,-0.012 0.2,-0.012 0.933,0 1.7,0.768 1.7,1.7 0,0.004 0,0.008 0,0.012 -0.029,0.877 -0.345,1.721 -0.9,2.4 l -21.9,34.4 21,0 c 0.068,-0.009 0.136,-0.013 0.204,-0.013 0.878,0 1.6,0.722 1.6,1.6 0,0.038 -10e-4,0.075 -0.004,0.113 0,1 -0.6,1.6 -1.8,1.6 l -23.6,0 z"
         style="fill-rule:nonzero"
         id="path4298"
         inkscape:connector-curvature="0" /></g><g
       id="g4300"><path
         d="m 818.6,82 c -0.003,-0.038 -0.004,-0.076 -0.004,-0.114 0,-0.823 0.677,-1.5 1.5,-1.5 0.068,0 0.136,0.005 0.204,0.014 l 14.1,0 c 0.068,-0.009 0.136,-0.014 0.204,-0.014 0.823,0 1.5,0.677 1.5,1.5 0,0.038 -0.001,0.076 -0.004,0.114 0,0.9 -0.6,1.5 -1.7,1.5 l -14.1,0 c -1.1,0 -1.7,-0.6 -1.7,-1.5"
         style="fill-rule:nonzero"
         id="path4302"
         inkscape:connector-curvature="0" /></g><g
       id="g4304"><path
         d="m 850.9,63.1 c 0,-1.3 0.7,-1.9 1.7,-1.9 0.037,-0.002 0.075,-0.004 0.112,-0.004 0.933,0 1.7,0.768 1.7,1.7 0,0.068 -0.004,0.136 -0.012,0.204 l 0,16.9 c 0,0.3 0.1,0.4 0.4,0.4 l 20.6,0 c 0.3,0 0.5,-0.1 0.5,-0.4 l 0,-16.9 c 0,-1.3 0.7,-1.9 1.7,-1.9 0.037,-0.002 0.075,-0.004 0.112,-0.004 0.933,0 1.7,0.768 1.7,1.7 0,0.068 -0.004,0.136 -0.012,0.204 l 0,38.6 c 0.008,0.068 0.012,0.136 0.012,0.204 0,0.932 -0.767,1.7 -1.7,1.7 -0.037,0 -0.075,-0.002 -0.112,-0.004 -0.004,0 -0.008,0 -0.012,0 -0.932,0 -1.7,-0.767 -1.7,-1.7 0,-0.067 0.004,-0.134 0.012,-0.2 l 0,-17.6 c -0.048,-0.236 -0.26,-0.405 -0.5,-0.4 l -20.6,0 c -0.219,0 -0.4,0.181 -0.4,0.4 l 0,17.6 c 0.002,0.033 0.003,0.067 0.003,0.1 0,0.987 -0.813,1.8 -1.8,1.8 -10e-4,0 -0.002,0 -0.003,0 -0.004,0 -0.008,0 -0.012,0 -0.932,0 -1.7,-0.767 -1.7,-1.7 0,-0.067 0.004,-0.134 0.012,-0.2 l 0,-38.6 z"
         style="fill-rule:nonzero"
         id="path4306"
         inkscape:connector-curvature="0" /></g><g
       id="g4308"><path
         d="m 917.8,89 -7.9,-21.9 -0.2,0 -7.9,21.9 16,0 z m -24,12.3 13.8,-38.3 c 0.27,-1.048 1.218,-1.789 2.3,-1.8 1.07,-0.018 2.006,0.748 2.2,1.8 l 13.7,38.3 c 0.089,0.222 0.123,0.462 0.1,0.7 0,0.001 0,0.002 0,0.003 0,0.878 -0.722,1.6 -1.6,1.6 -0.033,0 -0.067,-10e-4 -0.1,-0.003 -0.771,0.034 -1.474,-0.462 -1.7,-1.2 l -3.6,-10 -18.2,0 -3.6,10 c -0.234,0.776 -0.993,1.282 -1.8,1.2 -0.034,0.002 -0.069,0.004 -0.104,0.004 -0.822,0 -1.5,-0.678 -1.5,-1.5 0,-0.035 0.002,-0.07 0.004,-0.104 -0.023,-0.238 0.011,-0.478 0.1,-0.7"
         style="fill-rule:nonzero"
         id="path4310"
         inkscape:connector-curvature="0" /></g><g
       id="g4312"><path
         d="m 944.1,100 11,0 c 6.1,0 9.2,-3.2 9.2,-8.1 0,-4.9 -3.1,-8.2 -9.2,-8.2 l -11,0 c -0.3,0 -0.4,0.1 -0.4,0.3 l 0,15.6 c 0,0.3 0.1,0.4 0.4,0.4 m 10.8,-19.7 c 5.7,0 8.7,-3.2 8.7,-7.8 0,-4.6 -3.1,-7.8 -8.8,-7.8 l -10.7,0 c -0.219,0 -0.4,0.181 -0.4,0.4 l 0,14.9 c 0,0.2 0.1,0.3 0.4,0.3 l 10.8,0 z M 940.2,63.1 c -0.002,-0.034 -0.003,-0.069 -0.003,-0.103 0,-0.878 0.722,-1.6 1.6,-1.6 0.034,0 0.069,0.001 0.103,0.003 l 13,0 c 8,0 12.2,4.3 12.2,10.9 0,6.6 -2.6,8.2 -6.4,9.4 3.1,0.6 7.1,3.9 7.1,10.1 0,6.2 -4.6,11.4 -12.8,11.4 l -13.1,0 c -0.033,0.002 -0.067,0.003 -0.1,0.003 -0.878,0 -1.6,-0.722 -1.6,-1.6 0,-10e-4 0,-0.002 0,-0.003 l 0,-38.5 z"
         style="fill-rule:nonzero"
         id="path4314"
         inkscape:connector-curvature="0" /></g><g
       id="g4316"><path
         d="m 983.5,63.1 c -0.002,-0.034 -0.003,-0.069 -0.003,-0.103 0,-0.878 0.722,-1.6 1.6,-1.6 0.034,0 0.069,0.001 0.103,0.003 l 22,0 c 0.07,-0.009 0.14,-0.013 0.2,-0.013 0.88,0 1.6,0.722 1.6,1.6 0,0.038 0,0.075 0,0.113 0,1 -0.6,1.6 -1.8,1.6 l -19.8,0 c -0.219,0 -0.4,0.181 -0.4,0.4 l 0,14.9 c 0,0.3 0.1,0.4 0.4,0.4 l 16.9,0 c 0.07,-0.009 0.14,-0.013 0.2,-0.013 0.88,0 1.6,0.722 1.6,1.6 0,0.038 0,0.075 0,0.113 0,1 -0.6,1.6 -1.8,1.6 l -16.9,0 c -0.219,0 -0.4,0.181 -0.4,0.4 l 0,15.5 c 0,0.3 0.1,0.4 0.4,0.4 l 19.8,0 c 0.07,-0.009 0.14,-0.013 0.2,-0.013 0.88,0 1.6,0.722 1.6,1.6 0,0.038 0,0.075 0,0.113 0,1 -0.6,1.6 -1.8,1.6 l -22,0 c -0.033,0.002 -0.067,0.003 -0.1,0.003 -0.878,0 -1.6,-0.722 -1.6,-1.6 0,-0.001 0,-0.002 0,-0.003 l 0,-38.6 z"
         style="fill-rule:nonzero"
         id="path4318"
         inkscape:connector-curvature="0" /></g><g
       id="g4320"><path
         d="m 1048,73 c 0,-5.3 -3.2,-8.3 -9.3,-8.3 l -10.8,0 c -0.22,0 -0.4,0.181 -0.4,0.4 l 0,15.8 c 0,0.219 0.18,0.4 0.4,0.4 l 10.8,0 c 6.1,0 9.3,-3 9.3,-8.3 m 0.1,29.5 -8.7,-17.9 -11.5,0 c -0.22,0 -0.4,0.181 -0.4,0.4 l 0,16.7 c 0.01,0.068 0.01,0.136 0.01,0.204 0,0.932 -0.76,1.7 -1.7,1.7 -0.03,0 -0.07,-0.002 -0.11,-0.004 0,0 -0.01,0 -0.01,0 -0.93,0 -1.7,-0.767 -1.7,-1.7 0,-0.067 0,-0.134 0.01,-0.2 l 0,-38.6 c 0,-0.034 0,-0.069 0,-0.103 0,-0.878 0.72,-1.6 1.6,-1.6 0.03,0 0.07,0.001 0.1,0.003 l 13.1,0 c 7.8,0 12.7,4.4 12.7,11.6 0,7.2 -3.3,9.9 -8.6,11.2 l 8.4,16.9 c 0.08,0.258 0.12,0.529 0.1,0.8 0,0.034 0,0.069 0,0.103 0,0.878 -0.72,1.6 -1.6,1.6 -0.03,0 -0.07,-10e-4 -0.1,-0.003 -0.69,-0.046 -1.31,-0.469 -1.6,-1.1"
         style="fill-rule:nonzero"
         id="path4322"
         inkscape:connector-curvature="0" /></g><g
       id="g4324"><path
         d="m 1063.7,82 c 0,-0.038 0,-0.076 0,-0.114 0,-0.823 0.67,-1.5 1.5,-1.5 0.06,0 0.13,0.005 0.2,0.014 l 14.1,0 c 0.07,-0.009 0.14,-0.014 0.2,-0.014 0.83,0 1.5,0.677 1.5,1.5 0,0.038 0,0.076 0,0.114 0,0.9 -0.6,1.5 -1.7,1.5 l -14.1,0 c -1.1,0 -1.7,-0.6 -1.7,-1.5"
         style="fill-rule:nonzero"
         id="path4326"
         inkscape:connector-curvature="0" /></g><g
       id="g4328"><path
         d="m 1096,63.1 c 0,-1.3 0.7,-1.9 1.7,-1.9 0.04,-0.002 0.08,-0.004 0.11,-0.004 0.94,0 1.7,0.768 1.7,1.7 0,0.068 0,0.136 -0.01,0.204 l 0,38.6 c 0.01,0.068 0.01,0.136 0.01,0.204 0,0.932 -0.76,1.7 -1.7,1.7 -0.03,0 -0.07,-0.002 -0.11,-0.004 0,0 -0.01,0 -0.01,0 -0.93,0 -1.7,-0.767 -1.7,-1.7 0,-0.067 0,-0.134 0.01,-0.2 l 0,-38.6 z"
         style="fill-rule:nonzero"
         id="path4330"
         inkscape:connector-curvature="0" /></g><g
       id="g4332"><path
         d="m 1117.3,63.4 c -0.01,-0.07 -0.01,-0.141 -0.01,-0.211 0,-1.097 0.9,-2 2,-2 0.07,0 0.14,0.004 0.21,0.011 1.1,0 1.8,0.6 2.5,1.9 l 20.2,33.4 0.2,0 0,-33.4 c 0,-1.3 0.7,-1.9 1.7,-1.9 0.04,-0.002 0.07,-0.004 0.11,-0.004 0.93,0 1.7,0.768 1.7,1.7 0,0.068 0,0.136 -0.01,0.204 l 0,38.3 c 0.01,0.07 0.01,0.141 0.01,0.211 0,1.097 -0.9,2 -2,2 -0.07,0 -0.14,-0.004 -0.21,-0.011 -1.1,0 -1.7,-0.6 -2.5,-1.9 l -20.1,-33.5 -0.3,0 0,33.5 c 0.01,0.068 0.01,0.136 0.01,0.204 0,0.932 -0.76,1.7 -1.7,1.7 -0.03,0 -0.07,-0.002 -0.11,-0.004 0,0 -0.01,0 -0.01,0 -0.93,0 -1.7,-0.767 -1.7,-1.7 0,-0.067 0,-0.134 0.01,-0.2 l 0,-38.3 z"
         style="fill-rule:nonzero"
         id="path4334"
         inkscape:connector-curvature="0" /></g><g
       id="g4336"><path
         d="m 1162.8,99.9 c -0.62,-0.335 -1.01,-0.992 -1,-1.7 0.05,-0.949 0.85,-1.701 1.8,-1.7 0.46,0.011 0.91,0.149 1.3,0.4 3.28,2.32 7.18,3.608 11.2,3.7 6.8,0 10.9,-3.4 10.9,-8.5 0,-5.1 -2.4,-7.2 -10.1,-8.2 l -2,-0.2 c -8.2,-1.1 -12,-5 -12,-11.1 0,-6.1 5.2,-11.8 13.2,-11.8 3.79,-0.058 7.52,0.91 10.8,2.8 0.65,0.325 1.07,0.977 1.1,1.7 0,0.033 0,0.067 0,0.1 0,0.878 -0.72,1.6 -1.6,1.6 0,0 0,0 0,0 -0.46,-0.024 -0.91,-0.162 -1.3,-0.4 -2.81,-1.593 -5.97,-2.453 -9.2,-2.5 -6.1,0 -9.5,3.4 -9.5,8.2 0,4.8 2.7,7.1 9.9,8 l 1.9,0.2 c 8.4,1.1 12.3,5 12.3,11.3 0,6.3 -5,12.2 -14.8,12.2 -4.61,-0.072 -9.1,-1.498 -12.9,-4.1"
         style="fill-rule:nonzero"
         id="path4338"
         inkscape:connector-curvature="0" /></g><g
       id="g4340"><path
         d="m 1214.5,101.7 0,-36.6 c 0,-0.219 -0.18,-0.4 -0.4,-0.4 l -11.1,0 c -1.2,0 -1.8,-0.6 -1.8,-1.6 0,-0.038 0,-0.075 0,-0.113 0,-0.878 0.72,-1.6 1.6,-1.6 0.06,0 0.13,0.004 0.2,0.013 l 26.5,0 c 0.07,-0.009 0.14,-0.013 0.2,-0.013 0.88,0 1.6,0.722 1.6,1.6 0,0.038 0,0.075 0,0.113 0,1 -0.6,1.6 -1.8,1.6 l -11.1,0 c -0.22,0 -0.4,0.181 -0.4,0.4 l 0,36.6 c 0.01,0.068 0.01,0.136 0.01,0.204 0,0.932 -0.76,1.7 -1.7,1.7 -0.03,0 -0.07,-0.002 -0.11,-0.004 0,0 -0.01,0 -0.01,0 -0.93,0 -1.7,-0.767 -1.7,-1.7 0,-0.067 0,-0.134 0.01,-0.2"
         style="fill-rule:nonzero"
         id="path4342"
         inkscape:connector-curvature="0" /></g><g
       id="g4344"><path
         d="m 1245.3,63.1 c 0,-1.3 0.7,-1.9 1.7,-1.9 0.04,-0.002 0.08,-0.004 0.11,-0.004 0.94,0 1.7,0.768 1.7,1.7 0,0.068 0,0.136 -0.01,0.204 l 0,38.6 c 0.01,0.068 0.01,0.136 0.01,0.204 0,0.932 -0.76,1.7 -1.7,1.7 -0.03,0 -0.07,-0.002 -0.11,-0.004 0,0 -0.01,0 -0.01,0 -0.93,0 -1.7,-0.767 -1.7,-1.7 0,-0.067 0,-0.134 0.01,-0.2 l 0,-38.6 z"
         style="fill-rule:nonzero"
         id="path4346"
         inkscape:connector-curvature="0" /></g><g
       id="g4348"><path
         d="m 1276.3,101.7 0,-36.6 c 0,-0.2 -0.1,-0.4 -0.3,-0.4 l -11.2,0 c -0.07,0.009 -0.14,0.014 -0.2,0.014 -0.83,0 -1.5,-0.677 -1.5,-1.5 0,-0.038 0,-0.076 0,-0.114 0,-0.034 0,-0.069 0,-0.103 0,-0.878 0.72,-1.6 1.6,-1.6 0.03,0 0.07,0.001 0.1,0.003 l 26.6,0 c 0.03,-0.002 0.07,-0.003 0.1,-0.003 0.88,0 1.6,0.722 1.6,1.6 0,0.034 0,0.069 0,0.103 0,0.038 0,0.076 0,0.114 0,0.823 -0.67,1.5 -1.5,1.5 -0.06,0 -0.13,-0.005 -0.2,-0.014 l -11.2,0 c -0.2,0 -0.3,0.2 -0.3,0.4 l 0,36.6 c 0,0.987 -0.81,1.8 -1.8,1.8 -0.99,0 -1.8,-0.813 -1.8,-1.8"
         style="fill-rule:nonzero"
         id="path4350"
         inkscape:connector-curvature="0" /></g><g
       id="g4352"><path
         d="m 1304.9,88.8 0,-25.7 c -0.01,-0.068 -0.01,-0.136 -0.01,-0.204 0,-0.932 0.76,-1.7 1.7,-1.7 0.03,0 0.07,0.002 0.11,0.004 1,0 1.7,0.6 1.7,1.9 l 0,25.8 c 0,7.9 4,11.7 10.7,11.7 6.7,0 10.8,-3.8 10.8,-11.7 l 0,-25.8 c 0,-1.3 0.7,-1.9 1.7,-1.9 0.04,-0.002 0.07,-0.004 0.11,-0.004 0.93,0 1.7,0.768 1.7,1.7 0,0.068 0,0.136 -0.01,0.204 l 0,25.7 c 0,10.3 -5.6,15.2 -14.3,15.2 -8.7,0 -14.2,-4.9 -14.2,-15.2"
         style="fill-rule:nonzero"
         id="path4354"
         inkscape:connector-curvature="0" /></g><g
       id="g4356"><path
         d="m 1358.2,101.7 0,-36.6 c 0,-0.219 -0.18,-0.4 -0.4,-0.4 l -11.1,0 c -1.2,0 -1.8,-0.6 -1.8,-1.6 0,-0.038 0,-0.075 0,-0.113 0,-0.878 0.72,-1.6 1.6,-1.6 0.06,0 0.13,0.004 0.2,0.013 l 26.5,0 c 0.07,-0.009 0.14,-0.013 0.2,-0.013 0.88,0 1.6,0.722 1.6,1.6 0,0.038 0,0.075 0,0.113 0,1 -0.6,1.6 -1.8,1.6 l -11.1,0 c -0.22,0 -0.4,0.181 -0.4,0.4 l 0,36.6 c 0.01,0.068 0.01,0.136 0.01,0.204 0,0.932 -0.77,1.7 -1.7,1.7 -0.03,0 -0.07,-0.002 -0.11,-0.004 0,0 -0.01,0 -0.01,0 -0.93,0 -1.7,-0.767 -1.7,-1.7 0,-0.067 0,-0.134 0.01,-0.2"
         style="fill-rule:nonzero"
         id="path4358"
         inkscape:connector-curvature="0" /></g><g
       id="g4360"><path
         d="m 637.4,137.1 c -0.008,-0.068 -0.012,-0.135 -0.012,-0.203 0,-0.988 0.813,-1.8 1.8,-1.8 0.038,0 0.075,0.001 0.112,0.003 1,0 1.5,0.6 2,1.8 l 6.9,15.6 0.1,0 6.8,-15.6 c 0.6,-1.2 1.1,-1.8 2.1,-1.8 0.004,0 0.007,0 0.011,0 0.988,0 1.8,0.813 1.8,1.8 0,0.067 -0.004,0.134 -0.011,0.2 l 0,21.7 c 0.009,0.066 0.013,0.133 0.013,0.2 0,0.823 -0.677,1.5 -1.5,1.5 -0.004,0 -0.009,0 -0.013,0 -1,0 -1.5,-0.7 -1.5,-1.7 l 0,-16.3 -0.2,0 -5.7,12.7 c -0.6,1.3 -1.1,1.6 -1.9,1.6 -0.8,0 -1.3,-0.3 -1.9,-1.6 l -5.7,-12.7 -0.1,0 0,16.3 c 0.009,0.066 0.013,0.133 0.013,0.2 0,0.823 -0.677,1.5 -1.5,1.5 -0.004,0 -0.009,0 -0.013,0 -10e-4,0 -0.002,0 -0.003,0 -0.878,0 -1.6,-0.722 -1.6,-1.6 0,-0.033 10e-4,-0.067 0.003,-0.1 l 0,-21.7 z"
         style="fill:#116656;fill-rule:nonzero"
         id="path4362"
         inkscape:connector-curvature="0" /></g><g
       id="g4364"><path
         d="m 688.9,151.5 -4,-11.4 -0.1,0 -4,11.4 8.1,0 z m -13.9,6.7 7.7,-21.2 c 0.4,-1.2 1.1,-1.9 2.2,-1.9 1.1,0 1.8,0.7 2.2,1.9 l 7.5,21.2 c 0.111,0.218 0.179,0.456 0.2,0.7 0.002,0.034 0.004,0.069 0.004,0.104 0,0.822 -0.678,1.5 -1.5,1.5 -0.035,0 -0.07,-0.002 -0.104,-0.004 -0.709,-0.022 -1.323,-0.513 -1.5,-1.2 l -1.7,-4.8 -10.3,0 -1.7,4.8 c -0.186,0.723 -0.854,1.224 -1.6,1.2 -10e-4,0 -0.002,0 -0.003,0 -0.823,0 -1.5,-0.677 -1.5,-1.5 0,-0.033 10e-4,-0.067 0.003,-0.1 0,-0.2 0.1,-0.5 0.1,-0.7"
         style="fill:#116656;fill-rule:nonzero"
         id="path4366"
         inkscape:connector-curvature="0" /></g><g
       id="g4368"><path
         d="m 718.3,150.2 -5.9,9.4 c -0.242,0.554 -0.796,0.91 -1.4,0.9 -0.878,0 -1.6,-0.722 -1.6,-1.6 0.018,-0.353 0.121,-0.696 0.3,-1 l 6.7,-10.6 -6,-9.6 c -0.191,-0.336 -0.294,-0.714 -0.3,-1.1 0.053,-0.84 0.759,-1.502 1.6,-1.5 0.597,0.015 1.139,0.363 1.4,0.9 l 5.2,8.3 5.2,-8.3 c 0.261,-0.537 0.803,-0.885 1.4,-0.9 0.841,-0.002 1.547,0.66 1.6,1.5 -0.006,0.386 -0.109,0.764 -0.3,1.1 l -6.1,9.6 6.7,10.6 c 0.179,0.304 0.282,0.647 0.3,1 0,0.878 -0.722,1.6 -1.6,1.6 -0.597,-0.015 -1.139,-0.363 -1.4,-0.9 l -5.8,-9.4 z"
         style="fill:#116656;fill-rule:nonzero"
         id="path4370"
         inkscape:connector-curvature="0" /></g><g
       id="g4372"><path
         d="m 739.9,147.6 c 0,-0.823 0.677,-1.5 1.5,-1.5 l 7.9,0 c 0.033,-0.002 0.067,-0.003 0.1,-0.003 0.823,0 1.5,0.677 1.5,1.5 0,0.001 0,0.002 0,0.003 0,0.005 0,0.01 0,0.014 0,0.768 -0.632,1.4 -1.4,1.4 -0.067,0 -0.134,-0.004 -0.2,-0.014 l -7.9,0 c -0.033,0.002 -0.067,0.004 -0.1,0.004 -0.768,0 -1.4,-0.632 -1.4,-1.4 0,-0.002 0,-0.003 0,-0.004"
         style="fill:#116656;fill-rule:nonzero"
         id="path4374"
         inkscape:connector-curvature="0" /></g><g
       id="g4376"><path
         d="m 781,142.8 c 0,-2.7 -1.8,-4.4 -4.9,-4.4 l -5.6,0 c -0.1,0 -0.2,0 -0.2,0.2 l 0,8.4 0.2,0.2 5.6,0 c 3.1,0 4.9,-1.7 4.9,-4.4 m -14,-6 c -0.003,-0.035 -0.004,-0.069 -0.004,-0.104 0,-0.768 0.632,-1.4 1.4,-1.4 0.035,0 0.069,0.001 0.104,0.004 l 7.7,0 c 5,0 8,3 8,7.5 0,4.5 -3,7.4 -8,7.4 l -5.7,0 c -0.11,0 -0.2,0.09 -0.2,0.2 l 0,8.3 c 0.008,0.066 0.013,0.133 0.013,0.2 0,0.878 -0.723,1.6 -1.6,1.6 -0.005,0 -0.009,0 -0.013,0 -0.001,0 -0.002,0 -0.003,0 -0.933,0 -1.7,-0.767 -1.7,-1.7 0,-0.033 0.001,-0.067 0.003,-0.1 l 0,-21.9 z"
         style="fill:#116656;fill-rule:nonzero"
         id="path4378"
         inkscape:connector-curvature="0" /></g><g
       id="g4380"><path
         d="m 800.4,136.9 c -0.008,-0.066 -0.013,-0.133 -0.013,-0.2 0,-0.878 0.723,-1.6 1.6,-1.6 0.005,0 0.009,0 0.013,0 10e-4,0 0.002,0 0.003,0 0.933,0 1.7,0.767 1.7,1.7 0,0.033 -10e-4,0.067 -0.003,0.1 l 0,20.1 c 0,0.2 0,0.2 0.2,0.2 l 10.8,0 c 0.033,-0.002 0.067,-0.003 0.1,-0.003 0.823,0 1.5,0.677 1.5,1.5 0,0.001 0,0.002 0,0.003 0.002,0.034 0.004,0.069 0.004,0.104 0,0.822 -0.678,1.5 -1.5,1.5 -0.035,0 -0.07,-0.002 -0.104,-0.004 l -12.7,0 c -10e-4,0 -0.002,0 -0.003,0 -0.878,0 -1.6,-0.722 -1.6,-1.6 0,-0.033 10e-4,-0.067 0.003,-0.1 l 0,-21.7 z"
         style="fill:#116656;fill-rule:nonzero"
         id="path4382"
         inkscape:connector-curvature="0" /></g><g
       id="g4384"><path
         d="m 843.9,151.5 -4,-11.4 -0.1,0 -4.1,11.4 8.2,0 z m -13.9,6.7 7.7,-21.2 c 0.4,-1.2 1,-1.9 2.1,-1.9 1.1,0 1.8,0.7 2.2,1.9 l 7.6,21.2 c 0.111,0.218 0.179,0.456 0.2,0.7 0.002,0.034 0.004,0.069 0.004,0.104 0,0.822 -0.678,1.5 -1.5,1.5 -0.035,0 -0.07,-0.002 -0.104,-0.004 -0.725,-0.04 -1.359,-0.515 -1.6,-1.2 l -1.7,-4.8 -10.2,0 -1.7,4.8 c -0.216,0.703 -0.865,1.189 -1.6,1.2 -10e-4,0 -0.002,0 -0.003,0 -0.823,0 -1.5,-0.677 -1.5,-1.5 0,-0.033 10e-4,-0.067 0.003,-0.1 -0.016,-0.238 0.018,-0.476 0.1,-0.7"
         style="fill:#116656;fill-rule:nonzero"
         id="path4386"
         inkscape:connector-curvature="0" /></g><g
       id="g4388"><path
         d="m 865.6,137.1 c -0.007,-0.066 -0.011,-0.133 -0.011,-0.2 0,-0.987 0.812,-1.8 1.8,-1.8 0.004,0 0.007,0 0.011,0 1,0 1.6,0.7 2.2,1.7 l 10.7,17.6 0.2,0 0,-17.6 c 0,-0.823 0.677,-1.5 1.5,-1.5 0.823,0 1.5,0.677 1.5,1.5 l 0,21.7 c 0,1.2 -0.6,2 -1.8,2 -1.2,0 -1.6,-0.7 -2.2,-1.7 l -10.7,-17.5 -0.1,0 0,17.5 c 0.009,0.066 0.013,0.133 0.013,0.2 0,0.823 -0.677,1.5 -1.5,1.5 -0.004,0 -0.009,0 -0.013,0 -0.001,0 -0.002,0 -0.003,0 -0.878,0 -1.6,-0.722 -1.6,-1.6 0,-0.033 10e-4,-0.067 0.003,-0.1 l 0,-21.7 z"
         style="fill:#116656;fill-rule:nonzero"
         id="path4390"
         inkscape:connector-curvature="0" /></g><g
       id="g4392"><path
         d="m 900.4,147.8 c 0,-3.6 0.1,-5.2 0.7,-7 1.2,-3.8 4.1,-5.9 8.3,-5.9 3.021,-0.066 5.854,1.504 7.4,4.1 0.146,0.318 0.246,0.654 0.3,1 0,0.823 -0.677,1.5 -1.5,1.5 -0.633,0.024 -1.223,-0.33 -1.5,-0.9 -0.952,-1.691 -2.759,-2.73 -4.7,-2.7 -2.399,-0.067 -4.536,1.567 -5.1,3.9 -0.522,1.955 -0.724,3.981 -0.6,6 -0.124,2.019 0.078,4.045 0.6,6 0.569,2.315 2.719,3.917 5.1,3.8 1.915,0.029 3.707,-0.962 4.7,-2.6 0.277,-0.57 0.867,-0.924 1.5,-0.9 0.823,0 1.5,0.677 1.5,1.5 -0.054,0.346 -0.154,0.682 -0.3,1 -1.546,2.596 -4.379,4.166 -7.4,4.1 -4.2,0 -7.1,-2.1 -8.3,-5.9 -0.6,-1.8 -0.7,-3.5 -0.7,-7"
         style="fill:#116656;fill-rule:nonzero"
         id="path4394"
         inkscape:connector-curvature="0" /></g><g
       id="g4396"><path
         d="m 933.6,136.9 c 0,-0.878 0.722,-1.6 1.6,-1.6 0.878,0 1.6,0.722 1.6,1.6 l 0,11.9 10.7,-13 c 0.325,-0.447 0.848,-0.708 1.4,-0.7 0.785,0.052 1.402,0.714 1.4,1.5 -0.028,0.366 -0.168,0.715 -0.4,1 l -6.4,7.6 7.3,12.7 c 0.191,0.299 0.295,0.645 0.3,1 0.002,0.033 0.003,0.067 0.003,0.1 0,0.823 -0.677,1.5 -1.5,1.5 -10e-4,0 -0.002,0 -0.003,0 -0.672,-0.026 -1.282,-0.407 -1.6,-1 l -6.7,-11.8 -4.5,5.4 0,5.6 c 0,0.878 -0.722,1.6 -1.6,1.6 -0.878,0 -1.6,-0.722 -1.6,-1.6 l 0,-21.8 z"
         style="fill:#116656;fill-rule:nonzero"
         id="path4398"
         inkscape:connector-curvature="0" /></g><g
       id="g4400"><path
         d="m 964,147.6 c -0.003,-0.035 -0.004,-0.069 -0.004,-0.104 0,-0.768 0.632,-1.4 1.4,-1.4 0.035,0 0.069,0.001 0.104,0.004 l 7.9,0 c 0.823,0 1.5,0.677 1.5,1.5 0,0.001 0,0.002 0,0.004 0,0.768 -0.632,1.4 -1.4,1.4 -0.033,0 -0.067,-0.002 -0.1,-0.004 l -7.9,0 c -0.033,0.002 -0.067,0.004 -0.1,0.004 -0.768,0 -1.4,-0.632 -1.4,-1.4 0,-0.002 0,-0.003 0,-0.004"
         style="fill:#116656;fill-rule:nonzero"
         id="path4402"
         inkscape:connector-curvature="0" /></g><g
       id="g4404"><path
         d="m 990.2,147.8 c 0,-3.6 0.1,-5.2 0.7,-7 1.3,-3.8 4.2,-5.9 8.5,-5.9 4.3,0 6.5,1.6 7.8,4 0.11,0.322 0.18,0.659 0.2,1 0,0.035 0,0.069 0,0.104 0,0.768 -0.63,1.4 -1.4,1.4 -0.03,0 -0.06,-0.001 -0.1,-0.004 -0.63,0.024 -1.22,-0.33 -1.5,-0.9 -1.04,-1.734 -2.98,-2.74 -5,-2.6 -2.46,-0.125 -4.687,1.514 -5.3,3.9 -0.522,1.955 -0.724,3.981 -0.6,6 -0.124,2.019 0.078,4.045 0.6,6 0.618,2.369 2.858,3.975 5.3,3.8 2.44,0.196 4.7,-1.355 5.4,-3.7 0.37,-1.197 0.54,-2.448 0.5,-3.7 0,-0.11 -0.09,-0.2 -0.2,-0.2 l -3.8,0 c -0.13,0.033 -0.26,0.05 -0.4,0.05 -0.88,0 -1.597,-0.722 -1.597,-1.6 0,-0.878 0.717,-1.6 1.597,-1.6 0.14,0 0.27,0.017 0.4,0.05 l 5.8,0 c 0.03,-0.003 0.07,-0.004 0.1,-0.004 0.77,0 1.4,0.632 1.4,1.4 0,0.035 0,0.069 0,0.104 l 0,0.7 c -0.02,1.887 -0.25,3.767 -0.7,5.6 -1.07,3.735 -4.62,6.244 -8.5,6 -4.3,0 -7.2,-2.1 -8.5,-5.9 -0.6,-1.8 -0.7,-3.5 -0.7,-7"
         style="fill:#116656;fill-rule:nonzero"
         id="path4406"
         inkscape:connector-curvature="0" /></g><g
       id="g4408"><path
         d="m 1025.4,136.8 c 0,-0.035 0,-0.069 0,-0.104 0,-0.768 0.63,-1.4 1.4,-1.4 0.03,0 0.07,0.001 0.1,0.004 l 12.9,0 c 0.03,-0.002 0.07,-0.003 0.1,-0.003 0.82,0 1.5,0.677 1.5,1.5 0,0.001 0,0.002 0,0.003 0,0.034 0,0.069 0,0.104 0,0.822 -0.67,1.5 -1.5,1.5 -0.03,0 -0.07,-0.002 -0.1,-0.004 l -10.9,0 c -0.1,0 -0.2,0 -0.2,0.2 l 0,7.3 c 0,0.2 0.1,0.2 0.2,0.2 l 9.1,0 c 0.03,-0.002 0.07,-0.003 0.1,-0.003 0.82,0 1.5,0.677 1.5,1.5 0,0.001 0,0.002 0,0.003 0,0.034 0,0.069 0,0.104 0,0.822 -0.67,1.5 -1.5,1.5 -0.03,0 -0.07,-0.002 -0.1,-0.004 l -9.1,0 c -0.11,0 -0.2,0.09 -0.2,0.2 l 0,7.6 c 0,0.2 0.1,0.2 0.2,0.2 l 10.9,0 c 0.03,-0.002 0.07,-0.003 0.1,-0.003 0.82,0 1.5,0.677 1.5,1.5 0,0.001 0,0.002 0,0.003 0,0.034 0,0.069 0,0.104 0,0.822 -0.67,1.5 -1.5,1.5 -0.03,0 -0.07,-0.002 -0.1,-0.004 l -12.9,0 c -0.03,0.003 -0.07,0.004 -0.1,0.004 -0.77,0 -1.4,-0.632 -1.4,-1.4 0,-0.035 0,-0.069 0,-0.104 l 0,-22 z"
         style="fill:#116656;fill-rule:nonzero"
         id="path4410"
         inkscape:connector-curvature="0" /></g><g
       id="g4412"><path
         d="m 1057.5,158.3 c -0.5,-0.288 -0.81,-0.824 -0.8,-1.4 0,-0.001 0,-0.002 0,-0.003 0,-0.823 0.68,-1.5 1.5,-1.5 0.03,0 0.07,0.001 0.1,0.003 0.35,0.005 0.7,0.109 1,0.3 1.84,1.21 4,1.869 6.2,1.9 3.5,0 5.6,-1.7 5.6,-4.2 0,-2.5 -1.2,-3.5 -5.2,-4.1 l -1.2,-0.2 c -5.1,-0.8 -7.4,-3 -7.4,-6.9 0,-3.9 3.1,-7.3 8.1,-7.3 2.34,-0.015 4.65,0.57 6.7,1.7 0.5,0.288 0.8,0.824 0.8,1.4 0,0.033 0,0.067 0,0.1 0,0.768 -0.63,1.4 -1.4,1.4 0,0 0,0 0,0 -0.39,0.009 -0.77,-0.095 -1.1,-0.3 -1.59,-0.762 -3.33,-1.171 -5.1,-1.2 -3.1,0 -4.7,1.7 -4.7,4 0,2.3 1.3,3.4 5.2,4 l 1.2,0.2 c 5,0.8 7.4,3 7.4,7 0,4 -3.1,7.5 -9.1,7.5 -2.78,-0.014 -5.49,-0.849 -7.8,-2.4"
         style="fill:#116656;fill-rule:nonzero"
         id="path4414"
         inkscape:connector-curvature="0" /></g><g
       id="g4416"><path
         d="m 1091,136.8 c 0,-0.035 0,-0.069 0,-0.104 0,-0.768 0.63,-1.4 1.4,-1.4 0.03,0 0.06,0.001 0.1,0.004 l 12.9,0 c 0.03,-0.002 0.07,-0.003 0.1,-0.003 0.82,0 1.5,0.677 1.5,1.5 0,0.001 0,0.002 0,0.003 0,0.034 0,0.069 0,0.104 0,0.822 -0.67,1.5 -1.5,1.5 -0.03,0 -0.07,-0.002 -0.1,-0.004 l -10.9,0 c -0.1,0 -0.2,0 -0.2,0.2 l 0,7.3 c 0,0.2 0.1,0.2 0.2,0.2 l 9.1,0 c 0.03,-0.002 0.07,-0.003 0.1,-0.003 0.82,0 1.5,0.677 1.5,1.5 0,0.001 0,0.002 0,0.003 0,0.034 0,0.069 0,0.104 0,0.822 -0.67,1.5 -1.5,1.5 -0.03,0 -0.07,-0.002 -0.1,-0.004 l -9.1,0 -0.2,0.2 0,7.6 c 0,0.2 0.1,0.2 0.2,0.2 l 10.9,0 c 0.03,-0.002 0.07,-0.003 0.1,-0.003 0.82,0 1.5,0.677 1.5,1.5 0,0.001 0,0.002 0,0.003 0,0.034 0,0.069 0,0.104 0,0.822 -0.67,1.5 -1.5,1.5 -0.03,0 -0.07,-0.002 -0.1,-0.004 l -12.9,0 c -0.04,0.003 -0.07,0.004 -0.1,0.004 -0.77,0 -1.4,-0.632 -1.4,-1.4 0,-0.035 0,-0.069 0,-0.104 l 0,-22 z"
         style="fill:#116656;fill-rule:nonzero"
         id="path4418"
         inkscape:connector-curvature="0" /></g><g
       id="g4420"><path
         d="m 1123.3,136.9 c -0.01,-0.066 -0.01,-0.133 -0.01,-0.2 0,-0.878 0.72,-1.6 1.6,-1.6 0,0 0.01,0 0.01,0 0,0 0,0 0,0 0.94,0 1.7,0.767 1.7,1.7 0,0.033 0,0.067 0,0.1 l 0,20.1 c 0,0.2 0.1,0.2 0.2,0.2 l 10.9,0 c 0.03,-0.002 0.07,-0.003 0.1,-0.003 0.82,0 1.5,0.677 1.5,1.5 0,0.001 0,0.002 0,0.003 0,0.034 0,0.069 0,0.104 0,0.822 -0.67,1.5 -1.5,1.5 -0.03,0 -0.07,-0.002 -0.1,-0.004 l -12.8,0 c 0,0 0,0 0,0 -0.88,0 -1.6,-0.722 -1.6,-1.6 0,-0.033 0,-0.067 0,-0.1 l 0,-21.7 z"
         style="fill:#116656;fill-rule:nonzero"
         id="path4422"
         inkscape:connector-curvature="0" /></g><g
       id="g4424"><path
         d="m 1154.7,136.9 c -0.01,-0.066 -0.01,-0.133 -0.01,-0.2 0,-0.878 0.72,-1.6 1.6,-1.6 0,0 0.01,0 0.01,0 0,0 0,0 0,0 0.94,0 1.7,0.767 1.7,1.7 0,0.033 0,0.067 0,0.1 l 0,20.1 c 0,0.2 0,0.2 0.2,0.2 l 10.8,0 c 0.13,-0.033 0.26,-0.05 0.4,-0.05 0.88,0 1.6,0.722 1.6,1.6 0,0.878 -0.72,1.6 -1.6,1.6 -0.14,0 -0.27,-0.017 -0.4,-0.05 l -12.7,0 c 0,0 0,0 0,0 -0.88,0 -1.6,-0.722 -1.6,-1.6 0,-0.033 0,-0.067 0,-0.1 l 0,-21.7 z"
         style="fill:#116656;fill-rule:nonzero"
         id="path4426"
         inkscape:connector-curvature="0" /></g><g
       id="g4428"><path
         d="m 1185.8,158.3 c -0.5,-0.288 -0.8,-0.824 -0.8,-1.4 0,-0.001 0,-0.002 0,-0.003 0,-0.823 0.68,-1.5 1.5,-1.5 0.03,0 0.07,0.001 0.1,0.003 0.36,-0.007 0.71,0.098 1,0.3 1.85,1.195 4,1.853 6.2,1.9 3.6,0 5.6,-1.7 5.6,-4.2 0,-2.5 -1.1,-3.5 -5.2,-4.1 l -1.2,-0.2 c -5,-0.8 -7.4,-3 -7.4,-6.9 0,-3.9 3.2,-7.3 8.2,-7.3 2.31,-0.016 4.58,0.57 6.6,1.7 0.52,0.278 0.87,0.809 0.9,1.4 0,0.035 0,0.069 0,0.104 0,0.768 -0.63,1.4 -1.4,1.4 -0.03,0 -0.06,-0.001 -0.1,-0.004 l -1.1,-0.3 c -1.56,-0.76 -3.27,-1.169 -5,-1.2 -3.2,0 -4.8,1.7 -4.8,4 0,2.3 1.3,3.4 5.2,4 l 1.2,0.2 c 5.1,0.8 7.4,3 7.4,7 0,4 -3,7.5 -9.1,7.5 -2.78,-0.031 -5.49,-0.865 -7.8,-2.4"
         style="fill:#116656;fill-rule:nonzero"
         id="path4430"
         inkscape:connector-curvature="0" /></g><g
       id="g4432"><path
         d="m 1218.5,147.8 c 0,-3.6 0.1,-5.2 0.7,-7 1.2,-3.8 4.1,-5.9 8.3,-5.9 3.02,-0.066 5.85,1.504 7.4,4.1 0.11,0.322 0.18,0.659 0.2,1 0,0.035 0,0.069 0,0.104 0,0.768 -0.63,1.4 -1.4,1.4 -0.03,0 -0.07,-0.001 -0.1,-0.004 -0.6,-0.015 -1.14,-0.363 -1.4,-0.9 -0.95,-1.691 -2.76,-2.73 -4.7,-2.7 -2.4,-0.067 -4.54,1.567 -5.1,3.9 -0.52,1.955 -0.72,3.981 -0.6,6 -0.12,2.019 0.08,4.045 0.6,6 0.57,2.315 2.72,3.917 5.1,3.8 1.91,0.029 3.71,-0.962 4.7,-2.6 0.26,-0.537 0.8,-0.885 1.4,-0.9 0.03,-0.003 0.07,-0.004 0.1,-0.004 0.77,0 1.4,0.632 1.4,1.4 0,0.035 0,0.069 0,0.104 -0.02,0.341 -0.09,0.678 -0.2,1 -1.55,2.596 -4.38,4.166 -7.4,4.1 -4.2,0 -7.1,-2.1 -8.3,-5.9 -0.6,-1.8 -0.7,-3.5 -0.7,-7"
         style="fill:#116656;fill-rule:nonzero"
         id="path4434"
         inkscape:connector-curvature="0" /></g><g
       id="g4436"><path
         d="m 1251.6,136.9 c 0,-0.033 0,-0.067 0,-0.1 0,-0.933 0.76,-1.7 1.7,-1.7 0,0 0,0 0,0 0,0 0.01,0 0.01,0 0.88,0 1.6,0.722 1.6,1.6 0,0.067 0,0.134 -0.01,0.2 l 0,9 c 0,0.2 0.1,0.2 0.2,0.2 l 10.9,0 c 0.1,0 0.2,0 0.2,-0.2 l 0,-9 c 0,-0.033 0,-0.067 0,-0.1 0,-0.933 0.76,-1.7 1.7,-1.7 0,0 0,0 0,0 0,0 0.01,0 0.01,0 0.88,0 1.6,0.722 1.6,1.6 0,0.067 0,0.134 -0.01,0.2 l 0,21.8 c 0.01,0.066 0.01,0.133 0.01,0.2 0,0.878 -0.72,1.6 -1.6,1.6 0,0 -0.01,0 -0.01,0 0,0 0,0 0,0 -0.94,0 -1.7,-0.767 -1.7,-1.7 0,-0.033 0,-0.067 0,-0.1 l 0,-9.3 c 0,-0.2 -0.1,-0.2 -0.2,-0.2 l -10.9,0 c -0.1,0 -0.2,0 -0.2,0.2 l 0,9.3 c 0.01,0.066 0.01,0.133 0.01,0.2 0,0.878 -0.72,1.6 -1.6,1.6 0,0 -0.01,0 -0.01,0 0,0 0,0 0,0 -0.94,0 -1.7,-0.767 -1.7,-1.7 0,-0.033 0,-0.067 0,-0.1 l 0,-21.8 z"
         style="fill:#116656;fill-rule:nonzero"
         id="path4438"
         inkscape:connector-curvature="0" /></g><g
       id="g4440"><path
         d="m 1299.4,151.5 -4,-11.4 -0.1,0 -4.1,11.4 8.2,0 z m -13.9,6.7 7.7,-21.2 c 0.4,-1.2 1,-1.9 2.1,-1.9 1.1,0 1.8,0.7 2.2,1.9 l 7.6,21.2 c 0.11,0.218 0.18,0.456 0.2,0.7 0,0.034 0,0.069 0,0.104 0,0.822 -0.67,1.5 -1.5,1.5 -0.03,0 -0.07,-0.002 -0.1,-0.004 -0.72,-0.04 -1.36,-0.515 -1.6,-1.2 l -1.7,-4.8 -10.2,0 -1.7,4.8 c -0.24,0.685 -0.88,1.16 -1.6,1.2 0,0 0,0 0,0 -0.83,0 -1.5,-0.677 -1.5,-1.5 0,-0.033 0,-0.067 0,-0.1 -0.02,-0.238 0.02,-0.476 0.1,-0.7"
         style="fill:#116656;fill-rule:nonzero"
         id="path4442"
         inkscape:connector-curvature="0" /></g><g
       id="g4444"><path
         d="m 1321.1,136.8 c 0,-0.035 0,-0.069 0,-0.104 0,-0.768 0.63,-1.4 1.4,-1.4 0.03,0 0.07,0.001 0.1,0.004 l 12.8,0 c 0.13,-0.033 0.26,-0.05 0.4,-0.05 0.87,0 1.6,0.722 1.6,1.6 0,0.878 -0.73,1.6 -1.6,1.6 -0.14,0 -0.27,-0.017 -0.4,-0.05 l -10.8,0 c -0.1,0 -0.2,0 -0.2,0.2 l 0,7.6 c 0,0.11 0.09,0.2 0.2,0.2 l 9,0 c 0.03,-0.002 0.07,-0.003 0.1,-0.003 0.84,0 1.55,0.663 1.6,1.503 0,0.004 0,0.009 0,0.013 0,0.823 -0.68,1.5 -1.5,1.5 -0.07,0 -0.13,-0.004 -0.2,-0.013 l -9,0 -0.2,0.2 0,9.1 c 0.01,0.066 0.01,0.133 0.01,0.2 0,0.878 -0.72,1.6 -1.6,1.6 0,0 -0.01,0 -0.01,0 0,0 0,0 0,0 -0.94,0 -1.7,-0.767 -1.7,-1.7 0,-0.033 0,-0.067 0,-0.1 l 0,-21.9 z"
         style="fill:#116656;fill-rule:nonzero"
         id="path4446"
         inkscape:connector-curvature="0" /></g><g
       id="g4448"><path
         d="m 1367.8,135.3 c 0.13,-0.033 0.26,-0.05 0.4,-0.05 0.88,0 1.6,0.722 1.6,1.6 0,0.878 -0.72,1.6 -1.6,1.6 -0.14,0 -0.27,-0.017 -0.4,-0.05 l -5.7,0 c -0.2,0 -0.3,0 -0.3,0.2 l 0,20.1 c 0,0.878 -0.72,1.6 -1.6,1.6 -0.88,0 -1.6,-0.722 -1.6,-1.6 l 0,-20.1 c 0,-0.2 -0.1,-0.2 -0.3,-0.2 l -5.7,0 c -0.13,0.033 -0.26,0.05 -0.4,0.05 -0.87,0 -1.6,-0.722 -1.6,-1.6 0,-0.878 0.73,-1.6 1.6,-1.6 0.14,0 0.27,0.017 0.4,0.05 l 15.2,0 z"
         style="fill:#116656;fill-rule:nonzero"
         id="path4450"
         inkscape:connector-curvature="0" /></g></g><g
     id="FHI" /><defs
     id="defs4453"><linearGradient
       id="_Linear1"
       x1="0"
       y1="0"
       x2="1"
       y2="0"
       gradientUnits="userSpaceOnUse"
       gradientTransform="matrix(70.11,0,0,70.11,525.3,96.87)"><stop
         offset="0"
         style="stop-color:rgb(77,175,154);stop-opacity:1"
         id="stop4456" /><stop
         offset="0.6"
         style="stop-color:rgb(79,176,155);stop-opacity:1"
         id="stop4458" /><stop
         offset="0.82"
         style="stop-color:rgb(86,180,159);stop-opacity:1"
         id="stop4460" /><stop
         offset="0.98"
         style="stop-color:rgb(97,187,166);stop-opacity:1"
         id="stop4462" /><stop
         offset="1"
         style="stop-color:rgb(100,189,167);stop-opacity:1"
         id="stop4464" /></linearGradient><linearGradient
       id="_Linear2"
       x1="0"
       y1="0"
       x2="1"
       y2="0"
       gradientUnits="userSpaceOnUse"
       gradientTransform="matrix(136.9,0,0,136.9,458.51,143.35)"><stop
         offset="0"
         style="stop-color:rgb(47,94,85);stop-opacity:1"
         id="stop4467" /><stop
         offset="0.05"
         style="stop-color:rgb(47,94,85);stop-opacity:1"
         id="stop4469" /><stop
         offset="0.12"
         style="stop-color:rgb(48,104,92);stop-opacity:1"
         id="stop4471" /><stop
         offset="0.25"
         style="stop-color:rgb(32,114,99);stop-opacity:1"
         id="stop4473" /><stop
         offset="0.39"
         style="stop-color:rgb(12,122,107);stop-opacity:1"
         id="stop4475" /><stop
         offset="0.52"
         style="stop-color:rgb(0,129,112);stop-opacity:1"
         id="stop4477" /><stop
         offset="0.73"
         style="stop-color:rgb(63,160,141);stop-opacity:1"
         id="stop4479" /><stop
         offset="1"
         style="stop-color:rgb(100,189,167);stop-opacity:1"
         id="stop4481" /></linearGradient><linearGradient
       id="_Linear3"
       x1="0"
       y1="0"
       x2="1"
       y2="0"
       gradientUnits="userSpaceOnUse"
       gradientTransform="matrix(41.78,0,0,41.78,325,99.64)"><stop
         offset="0"
         style="stop-color:rgb(47,94,85);stop-opacity:1"
         id="stop4484" /><stop
         offset="1"
         style="stop-color:rgb(32,114,99);stop-opacity:1"
         id="stop4486" /></linearGradient><linearGradient
       id="_Linear4"
       x1="0"
       y1="0"
       x2="1"
       y2="0"
       gradientUnits="userSpaceOnUse"
       gradientTransform="matrix(115.51,73.36,-73.36,115.51,341.01,110.04)"><stop
         offset="0"
         style="stop-color:rgb(48,104,92);stop-opacity:1"
         id="stop4489" /><stop
         offset="1"
         style="stop-color:rgb(47,94,85);stop-opacity:1"
         id="stop4491" /></linearGradient></defs></svg>